<svg width="804" height="230" viewBox="0 0 804 230" fill="none" xmlns="http://www.w3.org/2000/svg">
<path d="M5.44682 55.9254L5.44682 36.9091H95.042V55.9254H61.6436L61.6436 146H38.8453L38.8453 55.9254H5.44682ZM100.875 146V64.1818H122.874V78.4574H123.726C125.218 73.3793 127.721 69.544 131.237 66.9517C134.753 64.3239 138.801 63.0099 143.382 63.0099C144.518 63.0099 145.743 63.081 147.057 63.223C148.371 63.3651 149.525 63.5604 150.52 63.8089V83.9439C149.454 83.6243 147.981 83.3402 146.098 83.0916C144.216 82.843 142.494 82.7188 140.932 82.7188C137.593 82.7188 134.611 83.4467 131.983 84.9027C129.39 86.3232 127.331 88.3118 125.804 90.8686C124.312 93.4254 123.566 96.3729 123.566 99.7109V146H100.875ZM195.41 147.598C187.136 147.598 179.981 145.84 173.944 142.325C167.942 138.773 163.308 133.837 160.041 127.516C156.774 121.16 155.141 113.791 155.141 105.411C155.141 96.9588 156.774 89.5724 160.041 83.2514C163.308 76.8949 167.942 71.9588 173.944 68.4432C179.981 64.892 187.136 63.1165 195.41 63.1165C203.685 63.1165 210.822 64.892 216.824 68.4432C222.861 71.9588 227.513 76.8949 230.78 83.2514C234.047 89.5724 235.68 96.9588 235.68 105.411C235.68 113.791 234.047 121.16 230.78 127.516C227.513 133.837 222.861 138.773 216.824 142.325C210.822 145.84 203.685 147.598 195.41 147.598ZM195.517 130.02C199.281 130.02 202.424 128.955 204.945 126.824C207.467 124.658 209.366 121.71 210.645 117.982C211.959 114.253 212.616 110.009 212.616 105.251C212.616 100.492 211.959 96.2486 210.645 92.5199C209.366 88.7912 207.467 85.8437 204.945 83.6776C202.424 81.5114 199.281 80.4283 195.517 80.4283C191.717 80.4283 188.521 81.5114 185.929 83.6776C183.372 85.8437 181.437 88.7912 180.123 92.5199C178.844 96.2486 178.205 100.492 178.205 105.251C178.205 110.009 178.844 114.253 180.123 117.982C181.437 121.71 183.372 124.658 185.929 126.824C188.521 128.955 191.717 130.02 195.517 130.02ZM287.403 147.598C279.022 147.598 271.813 145.822 265.776 142.271C259.775 138.685 255.158 133.713 251.927 127.357C248.731 121 247.133 113.685 247.133 105.411C247.133 97.0298 248.748 89.679 251.98 83.358C255.247 77.0014 259.881 72.0476 265.883 68.4964C271.884 64.9098 279.022 63.1165 287.296 63.1165C294.434 63.1165 300.684 64.4126 306.046 67.005C311.408 69.5973 315.652 73.2372 318.777 77.9247C321.902 82.6122 323.624 88.1165 323.944 94.4375H302.53C301.927 90.3537 300.329 87.0689 297.736 84.5831C295.18 82.0618 291.824 80.8011 287.669 80.8011C284.153 80.8011 281.082 81.7599 278.454 83.6776C275.861 85.5597 273.837 88.3118 272.381 91.9339C270.925 95.5561 270.197 99.9418 270.197 105.091C270.197 110.311 270.908 114.75 272.328 118.408C273.784 122.065 275.826 124.853 278.454 126.771C281.082 128.688 284.153 129.647 287.669 129.647C290.261 129.647 292.587 129.114 294.647 128.049C296.742 126.984 298.464 125.439 299.814 123.415C301.199 121.355 302.104 118.887 302.53 116.011H323.944C323.589 122.261 321.884 127.765 318.83 132.523C315.812 137.246 311.639 140.94 306.312 143.603C300.986 146.266 294.682 147.598 287.403 147.598ZM361.803 147.545C356.583 147.545 351.931 146.639 347.847 144.828C343.764 142.982 340.532 140.265 338.153 136.678C335.809 133.056 334.637 128.546 334.637 123.148C334.637 118.603 335.472 114.786 337.141 111.696C338.81 108.607 341.082 106.121 343.959 104.239C346.835 102.357 350.102 100.936 353.76 99.9773C357.453 99.0185 361.324 98.3437 365.372 97.9531C370.131 97.456 373.966 96.9943 376.878 96.5682C379.79 96.1065 381.903 95.4318 383.217 94.544C384.531 93.6562 385.188 92.3423 385.188 90.6023V90.2827C385.188 86.9091 384.122 84.299 381.992 82.4524C379.896 80.6058 376.913 79.6825 373.043 79.6825C368.959 79.6825 365.71 80.5881 363.295 82.3991C360.88 84.1747 359.282 86.4119 358.501 89.1108L337.514 87.4062C338.579 82.4347 340.674 78.1378 343.799 74.5156C346.924 70.858 350.955 68.0526 355.891 66.0994C360.862 64.1108 366.615 63.1165 373.149 63.1165C377.695 63.1165 382.045 63.6491 386.2 64.7145C390.39 65.7798 394.101 67.4311 397.332 69.6683C400.6 71.9055 403.174 74.782 405.056 78.2976C406.938 81.7777 407.879 85.9503 407.879 90.8153V146H386.359V134.654H385.72C384.406 137.211 382.649 139.466 380.447 141.419C378.245 143.337 375.6 144.846 372.51 145.947C369.421 147.012 365.852 147.545 361.803 147.545ZM368.302 131.884C371.64 131.884 374.587 131.227 377.144 129.913C379.701 128.564 381.707 126.753 383.163 124.48C384.619 122.207 385.347 119.633 385.347 116.756V108.074C384.637 108.536 383.661 108.962 382.418 109.352C381.21 109.707 379.843 110.045 378.316 110.364C376.789 110.648 375.262 110.915 373.735 111.163C372.208 111.376 370.823 111.572 369.58 111.749C366.917 112.14 364.591 112.761 362.602 113.614C360.614 114.466 359.069 115.62 357.968 117.076C356.867 118.496 356.317 120.272 356.317 122.403C356.317 125.492 357.435 127.854 359.673 129.487C361.945 131.085 364.822 131.884 368.302 131.884ZM556.881 75.1016H533.55C533.123 72.0831 532.253 69.402 530.94 67.0582C529.626 64.679 527.939 62.6548 525.879 60.9858C523.82 59.3168 521.44 58.0383 518.741 57.1506C516.078 56.2628 513.184 55.8189 510.059 55.8189C504.413 55.8189 499.494 57.2216 495.304 60.027C491.114 62.7969 487.864 66.8452 485.556 72.1719C483.248 77.4631 482.094 83.8906 482.094 91.4545C482.094 99.2315 483.248 105.766 485.556 111.057C487.9 116.348 491.167 120.343 495.357 123.042C499.547 125.741 504.395 127.09 509.899 127.09C512.989 127.09 515.847 126.682 518.475 125.865C521.138 125.048 523.5 123.859 525.56 122.296C527.619 120.698 529.324 118.763 530.673 116.49C532.058 114.217 533.017 111.625 533.55 108.713L556.881 108.82C556.277 113.827 554.768 118.656 552.353 123.308C549.974 127.925 546.76 132.062 542.712 135.719C538.699 139.342 533.905 142.218 528.329 144.349C522.79 146.444 516.522 147.491 509.526 147.491C499.796 147.491 491.096 145.29 483.425 140.886C475.79 136.483 469.753 130.109 465.315 121.763C460.911 113.418 458.709 103.315 458.709 91.4545C458.709 79.5582 460.947 69.4375 465.421 61.0923C469.896 52.7472 475.968 46.3906 483.638 42.0227C491.309 37.6193 499.938 35.4176 509.526 35.4176C515.847 35.4176 521.707 36.3054 527.104 38.081C532.538 39.8565 537.349 42.4489 541.54 45.8579C545.73 49.2315 549.139 53.3686 551.767 58.2692C554.43 63.1697 556.135 68.7805 556.881 75.1016ZM596.325 147.545C591.105 147.545 586.453 146.639 582.369 144.828C578.285 142.982 575.054 140.265 572.674 136.678C570.331 133.056 569.159 128.546 569.159 123.148C569.159 118.603 569.993 114.786 571.662 111.696C573.331 108.607 575.604 106.121 578.48 104.239C581.357 102.357 584.624 100.936 588.282 99.9773C591.975 99.0185 595.845 98.3437 599.894 97.9531C604.652 97.456 608.487 96.9943 611.399 96.5682C614.311 96.1065 616.424 95.4318 617.738 94.544C619.052 93.6562 619.709 92.3423 619.709 90.6023V90.2827C619.709 86.9091 618.644 84.299 616.513 82.4524C614.418 80.6058 611.435 79.6825 607.564 79.6825C603.48 79.6825 600.231 80.5881 597.816 82.3991C595.402 84.1747 593.804 86.4119 593.022 89.1108L572.035 87.4062C573.1 82.4347 575.196 78.1378 578.321 74.5156C581.446 70.858 585.476 68.0526 590.412 66.0994C595.384 64.1108 601.137 63.1165 607.671 63.1165C612.216 63.1165 616.566 63.6491 620.721 64.7145C624.911 65.7798 628.622 67.4311 631.854 69.6683C635.121 71.9055 637.696 74.782 639.578 78.2976C641.46 81.7777 642.401 85.9503 642.401 90.8153V146H620.881V134.654H620.242C618.928 137.211 617.17 139.466 614.968 141.419C612.767 143.337 610.121 144.846 607.032 145.947C603.942 147.012 600.373 147.545 596.325 147.545ZM602.823 131.884C606.161 131.884 609.109 131.227 611.666 129.913C614.223 128.564 616.229 126.753 617.685 124.48C619.141 122.207 619.869 119.633 619.869 116.756V108.074C619.159 108.536 618.182 108.962 616.939 109.352C615.732 109.707 614.365 110.045 612.838 110.364C611.311 110.648 609.784 110.915 608.257 111.163C606.73 111.376 605.345 111.572 604.102 111.749C601.438 112.14 599.112 112.761 597.124 113.614C595.135 114.466 593.59 115.62 592.49 117.076C591.389 118.496 590.838 120.272 590.838 122.403C590.838 125.492 591.957 127.854 594.194 129.487C596.467 131.085 599.343 131.884 602.823 131.884ZM660.006 146V64.1818H682.005V78.4574H682.857C684.349 73.3793 686.852 69.544 690.368 66.9517C693.883 64.3239 697.932 63.0099 702.513 63.0099C703.649 63.0099 704.874 63.081 706.188 63.223C707.502 63.3651 708.656 63.5604 709.65 63.8089V83.9439C708.585 83.6243 707.111 83.3402 705.229 83.0916C703.347 82.843 701.625 82.7187 700.062 82.7187C696.724 82.7187 693.741 83.4467 691.114 84.9027C688.521 86.3232 686.462 88.3118 684.935 90.8686C683.443 93.4254 682.697 96.3729 682.697 99.7109V146H660.006ZM747.723 147.332C741.509 147.332 735.88 145.734 730.837 142.538C725.83 139.306 721.853 134.565 718.906 128.315C715.994 122.03 714.538 114.324 714.538 105.197C714.538 95.8224 716.047 88.0277 719.065 81.8132C722.084 75.5632 726.097 70.8935 731.104 67.804C736.146 64.679 741.668 63.1165 747.67 63.1165C752.251 63.1165 756.068 63.8977 759.122 65.4602C762.212 66.9872 764.698 68.9048 766.58 71.2131C768.497 73.4858 769.953 75.723 770.948 77.9247H771.64V36.9091H794.279V146H771.906V132.896H770.948C769.882 135.169 768.373 137.424 766.42 139.661C764.502 141.863 761.999 143.692 758.909 145.148C755.855 146.604 752.127 147.332 747.723 147.332ZM754.914 129.274C758.572 129.274 761.661 128.28 764.183 126.291C766.739 124.267 768.693 121.444 770.042 117.822C771.427 114.2 772.119 109.956 772.119 105.091C772.119 100.226 771.445 96 770.095 92.4133C768.746 88.8267 766.793 86.0568 764.236 84.1037C761.679 82.1506 758.572 81.174 754.914 81.174C751.185 81.174 748.043 82.1861 745.486 84.2102C742.929 86.2344 740.994 89.0398 739.68 92.6264C738.366 96.2131 737.709 100.368 737.709 105.091C737.709 109.849 738.366 114.058 739.68 117.715C741.029 121.337 742.965 124.178 745.486 126.238C748.043 128.262 751.185 129.274 754.914 129.274Z" fill="#3C434C"/>
<path d="M498.108 215V168.455H529.472V176.568H507.949V187.659H527.858V195.773H507.949V206.886H529.562V215H498.108ZM537.114 215V180.091H546.341V186.25H546.75C547.477 184.205 548.689 182.591 550.386 181.409C552.083 180.227 554.114 179.636 556.477 179.636C558.871 179.636 560.909 180.235 562.591 181.432C564.273 182.614 565.394 184.22 565.955 186.25H566.318C567.03 184.25 568.318 182.652 570.182 181.455C572.061 180.242 574.28 179.636 576.841 179.636C580.098 179.636 582.742 180.674 584.773 182.75C586.818 184.811 587.841 187.735 587.841 191.523V215H578.182V193.432C578.182 191.492 577.667 190.038 576.636 189.068C575.606 188.098 574.318 187.614 572.773 187.614C571.015 187.614 569.644 188.174 568.659 189.295C567.674 190.402 567.182 191.864 567.182 193.682V215H557.795V193.227C557.795 191.515 557.303 190.152 556.318 189.136C555.348 188.121 554.068 187.614 552.477 187.614C551.402 187.614 550.432 187.886 549.568 188.432C548.72 188.962 548.045 189.712 547.545 190.682C547.045 191.636 546.795 192.758 546.795 194.045V215H537.114ZM595.489 228.091V180.091H605.034V185.955H605.466C605.89 185.015 606.504 184.061 607.307 183.091C608.125 182.106 609.186 181.288 610.489 180.636C611.807 179.97 613.443 179.636 615.398 179.636C617.943 179.636 620.292 180.303 622.443 181.636C624.595 182.955 626.314 184.947 627.602 187.614C628.89 190.265 629.534 193.591 629.534 197.591C629.534 201.485 628.905 204.773 627.648 207.455C626.405 210.121 624.708 212.144 622.557 213.523C620.42 214.886 618.027 215.568 615.375 215.568C613.496 215.568 611.898 215.258 610.58 214.636C609.277 214.015 608.208 213.235 607.375 212.295C606.542 211.341 605.905 210.379 605.466 209.409H605.17V228.091H595.489ZM604.966 197.545C604.966 199.621 605.254 201.432 605.83 202.977C606.405 204.523 607.239 205.727 608.33 206.591C609.42 207.439 610.746 207.864 612.307 207.864C613.883 207.864 615.216 207.432 616.307 206.568C617.398 205.689 618.223 204.477 618.784 202.932C619.36 201.371 619.648 199.576 619.648 197.545C619.648 195.53 619.367 193.758 618.807 192.227C618.246 190.697 617.42 189.5 616.33 188.636C615.239 187.773 613.898 187.341 612.307 187.341C610.731 187.341 609.398 187.758 608.307 188.591C607.231 189.424 606.405 190.606 605.83 192.136C605.254 193.667 604.966 195.47 604.966 197.545ZM635.989 215V180.091H645.375V186.182H645.739C646.375 184.015 647.443 182.379 648.943 181.273C650.443 180.152 652.17 179.591 654.125 179.591C654.61 179.591 655.133 179.621 655.693 179.682C656.254 179.742 656.746 179.826 657.17 179.932V188.523C656.716 188.386 656.087 188.265 655.284 188.159C654.481 188.053 653.746 188 653.08 188C651.655 188 650.383 188.311 649.261 188.932C648.155 189.538 647.277 190.386 646.625 191.477C645.989 192.568 645.67 193.826 645.67 195.25V215H635.989ZM676.46 215.682C672.869 215.682 669.778 214.955 667.188 213.5C664.612 212.03 662.627 209.955 661.233 207.273C659.839 204.576 659.142 201.386 659.142 197.705C659.142 194.114 659.839 190.962 661.233 188.25C662.627 185.538 664.589 183.424 667.119 181.909C669.665 180.394 672.65 179.636 676.074 179.636C678.377 179.636 680.521 180.008 682.506 180.75C684.506 181.477 686.248 182.576 687.733 184.045C689.233 185.515 690.4 187.364 691.233 189.591C692.066 191.803 692.483 194.394 692.483 197.364V200.023H663.006V194.023H683.369C683.369 192.629 683.066 191.394 682.46 190.318C681.854 189.242 681.013 188.402 679.938 187.795C678.877 187.174 677.642 186.864 676.233 186.864C674.763 186.864 673.46 187.205 672.324 187.886C671.203 188.553 670.324 189.455 669.688 190.591C669.051 191.712 668.725 192.962 668.71 194.341V200.045C668.71 201.773 669.028 203.265 669.665 204.523C670.316 205.78 671.233 206.75 672.415 207.432C673.597 208.114 674.998 208.455 676.619 208.455C677.695 208.455 678.68 208.303 679.574 208C680.468 207.697 681.233 207.242 681.869 206.636C682.506 206.03 682.991 205.288 683.324 204.409L692.278 205C691.824 207.152 690.892 209.03 689.483 210.636C688.089 212.227 686.286 213.47 684.074 214.364C681.877 215.242 679.339 215.682 676.46 215.682ZM727.847 190.045L718.983 190.591C718.831 189.833 718.506 189.152 718.006 188.545C717.506 187.924 716.847 187.432 716.028 187.068C715.225 186.689 714.263 186.5 713.142 186.5C711.642 186.5 710.377 186.818 709.347 187.455C708.316 188.076 707.801 188.909 707.801 189.955C707.801 190.788 708.134 191.492 708.801 192.068C709.468 192.644 710.612 193.106 712.233 193.455L718.551 194.727C721.945 195.424 724.475 196.545 726.142 198.091C727.809 199.636 728.642 201.667 728.642 204.182C728.642 206.47 727.968 208.477 726.619 210.205C725.286 211.932 723.453 213.28 721.119 214.25C718.801 215.205 716.127 215.682 713.097 215.682C708.475 215.682 704.794 214.72 702.051 212.795C699.324 210.856 697.725 208.22 697.256 204.886L706.778 204.386C707.066 205.795 707.763 206.871 708.869 207.614C709.975 208.341 711.392 208.705 713.119 208.705C714.816 208.705 716.18 208.379 717.21 207.727C718.256 207.061 718.786 206.205 718.801 205.159C718.786 204.28 718.415 203.561 717.688 203C716.96 202.424 715.839 201.985 714.324 201.682L708.278 200.477C704.869 199.795 702.331 198.614 700.665 196.932C699.013 195.25 698.188 193.106 698.188 190.5C698.188 188.258 698.794 186.326 700.006 184.705C701.233 183.083 702.953 181.833 705.165 180.955C707.392 180.076 709.998 179.636 712.983 179.636C717.392 179.636 720.862 180.568 723.392 182.432C725.938 184.295 727.422 186.833 727.847 190.045ZM744.693 215.659C742.466 215.659 740.481 215.273 738.739 214.5C736.996 213.712 735.617 212.553 734.602 211.023C733.602 209.477 733.102 207.553 733.102 205.25C733.102 203.311 733.458 201.682 734.17 200.364C734.883 199.045 735.852 197.985 737.08 197.182C738.307 196.379 739.701 195.773 741.261 195.364C742.837 194.955 744.489 194.667 746.216 194.5C748.246 194.288 749.883 194.091 751.125 193.909C752.367 193.712 753.269 193.424 753.83 193.045C754.39 192.667 754.67 192.106 754.67 191.364V191.227C754.67 189.788 754.216 188.674 753.307 187.886C752.413 187.098 751.14 186.705 749.489 186.705C747.746 186.705 746.36 187.091 745.33 187.864C744.299 188.621 743.617 189.576 743.284 190.727L734.33 190C734.784 187.879 735.678 186.045 737.011 184.5C738.345 182.939 740.064 181.742 742.17 180.909C744.292 180.061 746.746 179.636 749.534 179.636C751.473 179.636 753.33 179.864 755.102 180.318C756.89 180.773 758.473 181.477 759.852 182.432C761.246 183.386 762.345 184.614 763.148 186.114C763.951 187.598 764.352 189.379 764.352 191.455V215H755.17V210.159H754.898C754.337 211.25 753.587 212.212 752.648 213.045C751.708 213.864 750.58 214.508 749.261 214.977C747.943 215.432 746.42 215.659 744.693 215.659ZM747.466 208.977C748.89 208.977 750.148 208.697 751.239 208.136C752.33 207.561 753.186 206.788 753.807 205.818C754.428 204.848 754.739 203.75 754.739 202.523V198.818C754.436 199.015 754.019 199.197 753.489 199.364C752.973 199.515 752.39 199.659 751.739 199.795C751.087 199.917 750.436 200.03 749.784 200.136C749.133 200.227 748.542 200.311 748.011 200.386C746.875 200.553 745.883 200.818 745.034 201.182C744.186 201.545 743.527 202.038 743.057 202.659C742.587 203.265 742.352 204.023 742.352 204.932C742.352 206.25 742.83 207.258 743.784 207.955C744.754 208.636 745.981 208.977 747.466 208.977ZM800.909 190.045L792.045 190.591C791.894 189.833 791.568 189.152 791.068 188.545C790.568 187.924 789.909 187.432 789.091 187.068C788.288 186.689 787.326 186.5 786.205 186.5C784.705 186.5 783.439 186.818 782.409 187.455C781.379 188.076 780.864 188.909 780.864 189.955C780.864 190.788 781.197 191.492 781.864 192.068C782.53 192.644 783.674 193.106 785.295 193.455L791.614 194.727C795.008 195.424 797.538 196.545 799.205 198.091C800.871 199.636 801.705 201.667 801.705 204.182C801.705 206.47 801.03 208.477 799.682 210.205C798.348 211.932 796.515 213.28 794.182 214.25C791.864 215.205 789.189 215.682 786.159 215.682C781.538 215.682 777.856 214.72 775.114 212.795C772.386 210.856 770.788 208.22 770.318 204.886L779.841 204.386C780.129 205.795 780.826 206.871 781.932 207.614C783.038 208.341 784.455 208.705 786.182 208.705C787.879 208.705 789.242 208.379 790.273 207.727C791.318 207.061 791.848 206.205 791.864 205.159C791.848 204.28 791.477 203.561 790.75 203C790.023 202.424 788.902 201.985 787.386 201.682L781.341 200.477C777.932 199.795 775.394 198.614 773.727 196.932C772.076 195.25 771.25 193.106 771.25 190.5C771.25 188.258 771.856 186.326 773.068 184.705C774.295 183.083 776.015 181.833 778.227 180.955C780.455 180.076 783.061 179.636 786.045 179.636C790.455 179.636 793.924 180.568 796.455 182.432C799 184.295 800.485 186.833 800.909 190.045Z" fill="#3C434C"/>
</svg>
